HIERARCHY
ROOT Hips
{
	OFFSET 0.000000 0.000000 0.000000 
	CHANNELS 6 Xposition Yposition Zposition Yrotation Zrotation Xrotation 
	JOINT Lumbar
	{
		OFFSET 0.000000 0.000000 0.000000 
		CHANNELS 3 Zrotation Xrotation Yrotation
		JOINT Neck
		{
			OFFSET 0.000000 0.445665 0.000000 
			CHANNELS 3 Zrotation Xrotation Yrotation
			End Site
			{
				OFFSET 0.000000 0.227535 0.000000 
			}
		}
		JOINT RightShoulder
		{
			OFFSET 0.019635 0.377685 0.194865 
			CHANNELS 3 Zrotation Xrotation Yrotation
			JOINT RightElbow
			{
				OFFSET 0.000000 -0.243375 0.000000 
				CHANNELS 2 Zrotation Yrotation
				JOINT RightWrist
				{
					OFFSET 0.000000 -0.264825 0.000000 
					CHANNELS 2 Zrotation Xrotation
					End Site
					{
						OFFSET 0.006600 -0.176220 0.000990 
					}
				}
			}
		}
		JOINT LeftShoulder
		{
			OFFSET 0.019635 0.377685 -0.194865 
			CHANNELS 3 Zrotation Xrotation Yrotation
			JOINT LeftElbow
			{
				OFFSET 0.000000 -0.243375 0.000000 
				CHANNELS 2 Zrotation Yrotation
				JOINT LeftWrist
				{
					OFFSET 0.000000 -0.264825 0.000000 
					CHANNELS 2 Zrotation Xrotation
					End Site
					{
						OFFSET 0.006600 -0.176220 -0.000990 
					}
				}
			}
		}
	}
	JOINT RightHip
	{
		OFFSET 0.052140 -0.069960 0.075570 
		CHANNELS 3 Zrotation Xrotation Yrotation
		JOINT RightKnee
		{
			OFFSET 0.000000 -0.402270 0.000000 
			CHANNELS 1 Zrotation
			JOINT RightAnkle
			{
				OFFSET 0.000000 -0.404085 0.000000 
				CHANNELS 3 Zrotation Xrotation Yrotation
				End Site
				{
					OFFSET 0.204105 -0.089430 0.008415 
				}
			}
		}
	}
	JOINT LeftHip
	{
		OFFSET 0.052140 -0.069960 -0.075570 
		CHANNELS 3 Zrotation Xrotation Yrotation
		JOINT LeftKnee
		{
			OFFSET 0.000000 -0.402270 0.000000 
			CHANNELS 1 Zrotation
			JOINT LeftAnkle
			{
				OFFSET 0.000000 -0.404085 0.000000 
				CHANNELS 3 Zrotation Xrotation Yrotation
				End Site
				{
					OFFSET 0.204105 -0.089430 -0.008415 
				}
			}
		}
	}
}
MOTION
Frames: 11
Frame Time: 0.02
-0.00044 -0.00014 -0.00044 170.70796 -45.65835 -0.16415 56.02942 2.32385 2.82249 -3.60419 -6.47008 -1.04093 137.90187 -69.00756 -78.13842 12.45378 70.49261 3.50768 -9.65537 144.42563 73.79978 87.47874 10.99374 -73.37014 3.5383 11.59911 51.49917 -2.92885 -3.30593 -19.19616 -8.2635 -4.04474 -4.31708 54.39799 8.87488 13.59491 -24.07922 -8.06836 2.96966 3.75629
-0.00118 -0.00015 -0.00072 170.72926 -45.6664 -0.18697 56.13368 2.30192 2.83606 -3.72294 -6.50982 -1.04428 138.88997 -69.10071 -77.04237 12.5113 70.66535 3.53038 -9.64899 146.03698 73.37277 85.93085 10.91108 -75.11838 3.21117 11.62837 51.4322 -3.00874 -3.96068 -19.18615 -8.21742 -4.00913 -4.2927 54.36594 8.86904 13.46262 -24.07359 -8.06933 2.98183 3.76289
-0.00192 -0.00016 -0.00099 170.75064 -45.67431 -0.2097 56.23764 2.27998 2.84953 -3.84156 -6.54932 -1.04762 139.87607 -69.19377 -75.94853 12.56861 70.83765 3.55304 -9.6425 147.64467 72.94669 84.38669 10.8286 -76.85514 2.88625 11.65686 51.36523 -3.08842 -4.61361 -19.17617 -8.17146 -3.97362 -4.2684 54.33385 8.86314 13.33043 -24.06797 -8.0703 2.99399 3.76949
-0.00265 -0.00017 -0.00126 170.7719 -45.68231 -0.23245 56.34157 2.25811 2.86304 -3.95998 -6.58892 -1.05096 140.86132 -69.28667 -74.85564 12.62595 71.00985 3.57568 -9.63612 149.25131 72.52092 82.8434 10.74618 -78.59679 2.56037 11.68589 51.29842 -3.16806 -5.26637 -19.1662 -8.12551 -3.93812 -4.24409 54.30187 8.8573 13.19849 -24.06236 -8.07127 3.00613 3.77608
-0.00339 -0.00017 -0.00153 170.79302 -45.6905 -0.25529 56.44581 2.23628 2.8767 -4.07844 -6.6288 -1.0543 141.84809 -69.37961 -73.76103 12.68351 71.18254 3.59834 -9.62989 150.86102 72.09437 81.2968 10.66359 -80.3528 2.23167 11.716 51.23169 -3.24793 -5.92091 -19.1562 -8.07945 -3.90252 -4.21972 54.27 8.85153 13.06655 -24.05672 -8.07223 3.01828 3.78268
-0.00413 -0.00018 -0.0018 170.81496 -45.69785 -0.27781 56.54918 2.21413 2.88978 -4.19741 -6.66747 -1.05763 142.83269 -69.47293 -72.66889 12.7403 71.35405 3.62097 -9.62288 152.46429 71.66934 79.75786 10.58134 -82.04943 1.91465 11.74115 51.16423 -3.3272 -6.57045 -19.14626 -8.03372 -3.86721 -4.19556 54.23748 8.84536 12.93384 -24.05115 -8.07321 3.03044 3.78927
-0.00487 -0.00019 -0.00208 170.83524 -45.70686 -0.30094 56.65416 2.19264 2.90397 -4.3152 -6.70858 -1.06098 143.82071 -69.56535 -71.57289 12.79857 71.52756 3.64367 -9.61743 154.07895 71.24167 78.20526 10.49851 -83.86183 1.5749 11.77607 51.09828 -3.40754 -7.22919 -19.13621 -7.98737 -3.83137 -4.17099 54.20626 8.84002 12.80284 -24.04546 -8.07416 3.04257 3.79586
-0.00561 -0.0002 -0.00235 170.85702 -45.71437 -0.3235 56.75767 2.17053 2.91718 -4.43409 -6.74735 -1.06432 144.80534 -69.65865 -70.48066 12.85549 71.69956 3.66626 -9.61059 155.68277 70.81652 76.66513 10.41621 -85.57083 1.25534 11.80232 51.031 -3.48696 -7.8797 -19.12627 -7.94158 -3.79599 -4.1468 54.17389 8.8339 12.67024 -24.03988 -8.07514 3.05473 3.80246
-0.00634 -0.00021 -0.00262 170.88079 -45.71989 -0.3454 56.85937 2.14767 2.929 -4.5544 -6.78363 -1.06764 145.78734 -69.7529 -69.39152 12.9107 71.86845 3.68889 -9.60182 157.27557 70.39388 75.1399 10.33455 -87.13975 0.96359 11.81648 50.96178 -3.56506 -8.51944 -19.11644 -7.89653 -3.76127 -4.12309 54.13987 8.82688 12.53566 -24.0344 -8.07614 3.06694 3.80906
-0.00709 -0.00021 -0.0029 170.89355 -45.73638 -0.37122 56.97144 2.12917 2.94824 -4.66677 -6.83532 -1.07104 146.78911 -69.84131 -68.27996 12.97558 72.05144 3.71182 -9.60344 158.93856 69.95504 73.52786 10.24916 -89.47344 0.52124 11.89572 50.90279 -3.65017 -9.21904 -19.10587 -7.84736 -3.72302 -4.09666 54.1146 8.82518 12.4124 -24.02827 -8.07697 3.07889 3.81563
-0.0078 -0.00023 -0.00315 170.92925 -45.73003 -0.38868 57.06167 2.10146 2.95223 -4.7957 -6.85381 -1.07427 147.74602 -69.94224 -67.21888 13.02017 72.20709 3.73378 -9.58363 160.44888 69.55158 72.09988 10.1717 -90.22044 0.39053 11.84057 50.82284 -3.72084 -9.79364 -19.09695 -7.80679 -3.69207 -4.07591 54.07137 8.81217 12.26535 -24.02354 -8.07821 3.09139 3.82229
